<?xml version="1.0" encoding="utf-8"?>
<!-- Generator: Adobe Illustrator 24.1.2, SVG Export Plug-In . SVG Version: 6.00 Build 0)  -->
<svg class="default_svg default_light" version="1.1" id="Layer_2" xmlns="http://www.w3.org/2000/svg" xmlns:xlink="http://www.w3.org/1999/xlink" x="0px" y="0px"
	 viewBox="0 0 1170 274.4" style="enable-background:new 0 0 1170 274.4;" xml:space="preserve">
	<style type="text/css">.default_svg.default_light{fill: #333;}</style>
<g>
	<polygon points="133.4,0.6 0,262.7 76.8,262.7 133.4,151.5 189.9,262.7 266.8,262.7 	"/>
	<polygon points="333.5,274.4 200.1,12.3 276.9,12.3 333.5,123.4 390,12.3 466.8,12.3 	"/>
</g>
<g>
	<polygon points="1036.6,0 1170,262.1 1093.2,262.1 1036.6,150.9 980.1,262.1 903.2,262.1 	"/>
	<polygon points="836.5,273.8 969.9,11.7 893.1,11.7 836.5,122.8 780,11.7 703.2,11.7 	"/>
</g>
<path d="M587.9,11.7c-72.4,0-131,58.7-131,131s58.7,131,131,131s131-58.7,131-131S660.3,11.7,587.9,11.7z M587.9,207.1
	c-35.5,0-64.3-28.8-64.3-64.3s28.8-64.4,64.3-64.4s64.4,28.8,64.4,64.4S623.5,207.1,587.9,207.1z"/>
</svg>
